<?xml version="1.0" encoding="UTF-8"?>
<svg width="387px" height="364px" viewBox="0 0 387 364" version="1.1" xmlns="http://www.w3.org/2000/svg" xmlns:xlink="http://www.w3.org/1999/xlink">
    <g id="Page-1" stroke="none" stroke-width="1" fill="none" fill-rule="evenodd">
        <g transform="translate(-10.000000, -21.000000)" fill="#000000" fill-rule="nonzero">
            <path d="M87.8049978,27.0501399 L88.35406,27.7245445 L90.6009812,30.5075776 L92.8813783,33.3041249 L95.2104545,36.1378488 L97.682895,39.1233995 L99.6261316,41.4546421 C108.420023,51.975026 117.533461,62.491549 126.463299,72.2763747 C129.63765,75.7546547 132.736406,79.0817929 135.745061,82.23749 L137.551179,84.1224819 L138.903281,85.5209503 L140.238936,86.8912617 L141.557846,88.2330582 L142.859712,89.5459821 L144.144235,90.8296756 C144.35686,91.0411688 144.56875,91.2514292 144.779899,91.4604492 L146.037846,92.6996263 L147.277703,93.9086786 L148.49917,95.0872483 L149.701949,96.2349775 L150.885741,97.3515086 L152.050246,98.4364838 C152.242706,98.6146634 152.43435,98.7915133 152.625172,98.967026 L153.760187,100.003996 C153.947695,100.174131 154.134369,100.342913 154.320201,100.510335 L155.425053,101.498496 C155.607497,101.66045 155.789087,101.82103 155.969817,101.980228 L157.043834,102.918774 L158.096921,103.823796 C158.618181,104.267867 159.131481,104.699232 159.636652,105.11769 L160.139106,105.531838 C160.454849,105.790779 160.766453,106.043795 161.073803,106.290822 L161.982983,107.013877 L162.86596,107.700626 C163.010901,107.812038 163.154722,107.921922 163.297408,108.03027 L164.139798,108.661858 C164.554072,108.968373 164.957878,109.260922 165.350832,109.539293 L166.122156,110.077069 C167.004886,110.682275 167.827134,111.209527 168.584009,111.656142 L168.861646,111.81802 L169.384518,112.111464 C169.88521,112.384692 170.318206,112.597258 170.673105,112.74903 L170.878,112.833 L171.061741,112.846979 C179.474773,113.375127 189.741885,106.940915 200.195172,94.8032541 L200.613399,94.3147088 L201.015909,93.838991 C205.027441,89.0708032 208.703962,83.8937165 211.928438,78.7156082 L212.298369,78.1182514 L213.006071,76.9562144 L213.670275,75.8404842 L214.290243,74.7743459 L214.979171,73.5572251 L215.626268,72.3740858 L215.745399,72.1469335 C224.528221,55.0402231 250.262363,65.7755772 244.671352,83.8228114 L244.409245,84.6326101 L244.174588,85.4027598 L243.997332,86.0138621 C243.535399,87.6363051 243.065334,89.5097473 242.622863,91.5872813 C240.473248,101.680374 239.854543,112.107813 241.59075,121.359833 C243.227372,130.081183 246.829873,137.01118 252.756947,142.141839 L252.790816,142.168229 L252.889836,142.229791 L253.030887,142.30186 C253.057919,142.314667 253.086719,142.327852 253.117295,142.341385 L253.322119,142.426514 L253.569942,142.51855 L253.861153,142.616051 L254.196138,142.717577 C254.255638,142.734753 254.316978,142.752037 254.380166,142.769399 L254.781539,142.874262 L255.227654,142.979549 L255.718899,143.083819 C255.890212,143.118246 256.069111,143.152264 256.255661,143.185632 C259.308484,143.731687 263.401838,143.872328 268.363952,143.557885 C273.170332,143.25331 278.621593,142.537269 284.629707,141.441355 L286.282024,141.133075 L287.961556,140.8061 L289.667907,140.460574 C290.241116,140.342322 290.81873,140.221002 291.40068,140.096638 L293.159479,139.714435 L294.943905,139.314107 C295.243423,139.245884 295.543993,139.176911 295.845605,139.107191 L297.667731,138.679944 C297.973482,138.607251 298.28026,138.533818 298.588057,138.459648 L300.446988,138.005801 C300.758824,137.928692 301.071662,137.850853 301.385494,137.772285 L303.280337,137.292159 L305.198627,136.794691 C313.829544,134.531324 322.962622,131.802916 332.407704,128.709789 C342.013465,125.564043 351.460249,122.202554 360.384722,118.827783 L363.04784,117.81445 L365.966777,116.688731 L368.692122,115.622174 L371.214268,114.620201 L374.366092,113.341419 C391.863015,106.065948 404.679077,130.219357 389.275681,140.690839 L385.974565,142.83881 L384.735575,143.653667 L383.29392,144.607779 L381.046573,146.106953 L378.702537,147.685214 L377.088991,148.779922 L374.596678,150.483683 C374.315134,150.677016 374.032085,150.871673 373.747568,151.067636 C362.375391,158.900312 351.008615,167.192046 340.445728,175.542443 C332.329787,181.958428 325.025716,188.149018 318.744134,193.995556 C317.845345,194.832098 316.970099,195.659244 316.118926,196.476516 L314.860288,197.694958 C314.653546,197.896777 314.448326,198.097964 314.244635,198.298512 L313.040909,199.494063 C311.065511,201.473658 309.244723,203.387796 307.586842,205.228997 L306.611729,206.324906 C304.860105,208.317806 303.307607,210.220641 301.965281,212.023455 C300.075674,214.561294 298.665824,216.818815 297.755389,218.714149 C297.628797,218.977685 297.515506,219.226133 297.414729,219.45886 L297.229628,219.903166 L297.076504,220.304426 C296.870102,220.873469 296.766908,221.293437 296.74572,221.547258 C296.609655,223.155978 297.077243,225.38331 298.172556,228.107637 L298.447495,228.770956 C298.543167,228.995201 298.642869,229.222565 298.746613,229.452985 L299.069984,230.153353 C299.517346,231.099235 300.029579,232.09302 300.607471,233.130724 L301.053214,233.917175 C301.205907,234.182028 301.362716,234.449565 301.523653,234.719721 L302.018862,235.53799 C302.188068,235.813325 302.361415,236.091218 302.538915,236.371607 L303.083886,237.2202 L303.653849,238.083394 L304.248878,238.960816 C304.451407,239.25562 304.658125,239.552732 304.869047,239.852092 C309.849588,246.920955 316.724358,254.66637 324.990442,262.725232 C331.845868,269.408801 339.240346,275.910514 346.638001,281.94322 L347.916492,282.981004 L349.161455,283.982196 L350.962045,285.413339 C351.157463,285.567548 351.351295,285.720136 351.543502,285.871083 L352.676938,286.756918 L354.382859,288.073191 L356.287685,289.512123 C356.304907,289.524865 356.319695,289.535777 356.332025,289.544849 C370.64006,300.072244 359.139048,322.363687 342.449944,317.12887 L340.232928,316.382337 L338.870381,315.927526 C324.634034,311.200069 308.084402,306.268758 292.372433,302.531844 L290.480938,302.087159 C290.168176,302.014503 289.856669,301.942579 289.546428,301.871391 L287.700312,301.453137 C287.090086,301.316689 286.485044,301.183223 285.8853,301.052776 L284.102072,300.670527 L282.35131,300.306609 C282.06226,300.247495 281.774591,300.189155 281.488317,300.131591 L279.787531,299.795578 C279.226259,299.686707 278.670682,299.580982 278.120913,299.47844 L276.489144,299.180397 C275.144046,298.940045 273.835959,298.719811 272.566656,298.520264 L271.062221,298.290773 C269.57663,298.071284 268.147909,297.881913 266.779122,297.723641 L265.430427,297.575771 C261.684482,297.18826 258.538457,297.064982 256.119588,297.195062 C255.204432,297.244277 254.443866,297.327351 253.858057,297.430907 L253.368433,297.524039 C253.363426,297.524054 253.361192,297.523212 253.361767,297.521423 L253.371965,297.51313 L253.348952,297.524705 C253.146992,297.631519 252.872763,297.812099 252.533671,298.081293 C251.981713,298.519473 251.360744,299.114571 250.689543,299.868249 C249.13074,301.618595 247.463701,304.03941 245.767825,307.060989 C242.397582,313.065827 239.142818,321.012856 236.128199,330.366301 C233.226227,339.370237 230.71469,349.12044 228.620789,358.884649 L228.262206,360.576882 L227.921358,362.225062 L227.59827,363.826755 L227.292966,365.379522 L227.00547,366.88093 L226.735807,368.328542 L226.452713,369.897697 L226.13746,371.736965 C223.237562,389.802658 197.155429,389.00699 195.125054,371.120025 L194.980036,369.680574 L194.858927,368.626974 L194.760538,367.834353 C194.451002,365.408597 194.030463,362.680679 193.484516,359.731921 C191.930716,351.33956 189.706797,342.969581 186.74387,335.304287 C181.214003,320.99814 173.92789,311.336058 165.517362,307.620377 C164.243321,307.057175 162.285388,306.778636 159.722101,306.835755 L159.039736,306.858303 C158.807739,306.86838 158.571215,306.881028 158.330218,306.896281 L157.593855,306.94989 C157.343961,306.970387 157.089645,306.993523 156.830958,307.01933 L156.041836,307.104804 C155.373393,307.182768 154.677955,307.277643 153.95633,307.389953 L153.077862,307.533126 L152.174562,307.693238 C152.02196,307.721346 151.868337,307.750169 151.713698,307.779709 L150.773734,307.965606 L149.809714,308.168944 L148.821949,308.389925 L147.810747,308.62875 C147.640277,308.670052 147.468844,308.712106 147.296454,308.754916 L146.250679,309.020884 C146.074486,309.066735 145.897349,309.113351 145.719274,309.160735 L144.639622,309.454298 L144.091453,309.60806 C138.592514,311.166138 132.517859,313.33955 125.976077,316.06362 L124.259001,316.786695 C123.107314,317.277016 121.941784,317.783822 120.762982,318.306773 L118.984897,319.103265 C117.197001,319.911781 115.379885,320.756239 113.535479,321.635492 L111.682047,322.526301 C111.371649,322.676688 111.060511,322.828031 110.748642,322.980324 L108.868721,323.905449 C108.553963,324.061524 108.23849,324.218538 107.922313,324.376487 L106.016869,325.335354 L104.266486,326.228359 L102.676475,327.049845 L101.077936,327.885352 L99.4720036,328.734094 L97.8598098,329.595286 L96.2424881,330.468142 L94.6211719,331.351876 L92.9969944,332.245703 L91.3710888,333.148836 L89.7445884,334.06049 L88.1186264,334.979879 L85.683172,336.371748 L83.2553034,337.776602 L80.8388454,339.191789 L78.4376227,340.614656 L76.0554601,342.042553 L74.4798292,342.995969 L72.1379325,344.426355 L70.5926869,345.378975 L69.0615787,346.329901 L66.7939028,347.751397 L64.5644104,349.164663 L63.1011838,350.100959 L61.6577607,351.031633 L60.2352744,351.955899 L58.8348581,352.872972 L56.7780938,354.233374 L55.4378104,355.129026 L54.1235633,356.014734 L52.8364858,356.889712 L51.5777112,357.753176 L50.3483725,358.60434 L49.1496032,359.442417 L47.9825364,360.266622 L46.2938575,361.4752 L45.211005,362.261287 L44.1638214,363.030753 L43.1534399,363.78281 L42.1809937,364.516674 L41.2476162,365.231558 L40.8711047,365.523127 L37.1264589,369.09126 C29.7085716,376.074335 17.7032261,374.227333 12.7273573,365.337502 C9.9434727,360.363844 10.2529519,355.742374 11.8589878,351.718472 C12.4742916,350.176836 13.1887856,348.996915 14.0150442,347.890434 C14.7788933,346.867527 15.5576554,346.028879 16.4677256,345.155467 C17.2075518,344.445443 18.0745847,343.682614 19.0819749,342.84792 L19.86404,342.208127 L20.6999719,341.539597 L21.3310669,340.860501 C39.3823684,323.447841 58.8638034,303.57196 75.3340428,284.847951 L76.6072929,283.395578 L78.4762195,281.245174 L80.2953368,279.129227 L81.4800369,277.73811 L82.6420402,276.362865 L83.7811229,275.003716 L84.8970614,273.660887 L85.989632,272.3346 L87.0586108,271.025078 L88.1037741,269.732547 L89.1248983,268.457227 C89.29307,268.246121 89.4602307,268.035741 89.6263758,267.826092 L90.6110217,266.577011 L91.5710691,265.3457 L92.5062944,264.132385 L93.4164736,262.937287 L94.3013832,261.76063 C94.4467499,261.566069 94.5910544,261.372287 94.734292,261.179287 L95.5808776,260.03071 L96.4016342,258.901134 L97.1963381,257.79078 L97.9647655,256.699873 C98.0906346,256.519688 98.2153995,256.340323 98.3390556,256.161781 L99.0676489,255.100463 L99.7694064,254.059148 C100.113539,253.54353 100.447524,253.035497 100.771236,252.535175 L101.091519,252.037428 C101.299411,251.712537 101.50209,251.392105 101.699523,251.076263 L102.276049,250.142632 C102.369502,249.989365 102.461636,249.837278 102.552447,249.686387 L103.081389,248.795526 L103.578365,247.934156 L104.043178,247.10306 C104.790954,245.743562 105.403902,244.513465 105.87794,243.429069 L106.056,243.011 L105.974484,242.941809 C104.795118,241.955176 103.293441,240.860668 101.498735,239.689906 L101.04397,239.395645 L100.577098,239.098317 C98.0360473,237.492602 95.0646478,235.813214 91.7105787,234.078691 L90.348655,233.381986 L88.9465914,232.679662 L87.5050659,231.971985 L86.0247566,231.259218 L84.5063416,230.541624 L82.9504991,229.819467 C82.6881107,229.698742 82.4241911,229.577838 82.1587544,229.45676 L80.548042,228.728254 C68.0921688,223.141532 53.7666848,217.737736 39.7471297,212.997104 L38.1309702,212.453079 L35.0136494,211.418826 L32.4668169,210.590911 L30.3735129,209.925904 C14.4299816,204.979863 16.3117035,181.971495 32.5872956,179.496948 L35.9732663,179.043053 L38.4464531,178.693008 L40.0850241,178.453144 L42.6459887,178.066405 L44.4182472,177.790668 L46.239433,177.500642 C46.5468969,177.451116 46.8562911,177.400996 47.1675615,177.350282 C57.8156839,175.61545 68.4522541,173.552106 78.301837,171.182507 L80.1568794,170.730138 C80.4632306,170.654407 80.7681598,170.578509 81.071651,170.502447 L82.8752126,170.044126 C83.1728872,169.967419 83.4690916,169.890552 83.7638098,169.813529 L85.5141546,169.349539 C85.8028634,169.271902 86.0900537,169.194114 86.3757095,169.116178 L88.0711016,168.6468 C88.3505551,168.568281 88.6284419,168.489619 88.9047461,168.410816 L90.5434495,167.936332 C95.9416283,166.349241 100.693859,164.708031 104.671554,163.033598 C107.902721,161.67342 110.49786,160.34038 112.354208,159.117912 L112.77744,158.83226 L112.971,158.695 L112.936217,158.444307 C112.822247,157.647483 112.662306,156.764598 112.457052,155.800467 L112.270039,154.954285 C112.237025,154.809976 112.203091,154.664037 112.168238,154.516482 L111.948107,153.611873 L111.706012,152.669156 L111.442047,151.689004 L111.156303,150.672091 C111.106869,150.49958 111.056531,150.325565 111.005292,150.15006 L110.687053,149.07927 L110.347265,147.973405 L109.986022,146.833137 L109.797383,146.250314 C109.661326,145.83283 109.521635,145.410158 109.378343,144.982357 L108.937694,143.683627 C108.862463,143.464628 108.78634,143.244361 108.709329,143.022835 L108.23664,141.678622 C108.156094,141.452088 108.074669,141.224308 107.992367,140.995291 L107.488087,139.606406 C107.402301,139.372471 107.315647,139.137314 107.22813,138.900942 L106.692705,137.468197 L106.136766,136.006661 L105.560511,134.516696 L104.964139,132.998662 L104.347849,131.45292 C104.243485,131.193007 104.1383,130.931955 104.032297,130.669771 L103.386503,129.083143 L102.721288,127.469707 L102.036851,125.829826 L101.33339,124.163859 L100.611106,122.472166 L99.8701952,120.755109 L98.7243417,118.132753 L97.9377374,116.353861 L97.1332034,114.550867 L95.8932192,111.801971 L94.6140119,109.000873 C92.6073606,104.632775 90.4798782,100.119907 88.2469049,95.4868832 C83.0260838,84.654605 77.4527571,73.6204997 71.8493178,62.8917926 L69.8642288,59.106028 L68.0881769,55.7445985 L66.3966852,52.5667261 L64.79702,49.5837743 L63.1370354,46.5141409 L62.2040896,44.8050812 C53.0517317,28.1737139 75.7492708,12.8096885 87.8049978,27.0501399 Z M136.38114,126.456677 L135.832,125.978 L136.024594,126.48602 C137.121406,129.397483 138.117071,132.17987 139.007064,134.827483 L139.33585,135.814009 L139.575905,136.545572 C141.747282,143.208335 143.223995,148.998987 143.940683,154.009725 C144.985397,161.313861 144.617745,167.398714 141.581603,172.972252 C137.119542,181.176776 128.771936,186.870298 116.823121,191.900219 C110.344671,194.62736 102.751931,197.129756 94.1936192,199.448611 L93.1188119,199.737515 L92.69,199.85 L93.3655081,200.151078 C93.8719118,200.378211 94.374082,200.604779 94.8720183,200.830821 L96.3531254,201.507403 C96.5978595,201.619916 96.8415351,201.732307 97.084152,201.84458 L98.5271496,202.516848 C98.7655319,202.628671 99.0028554,202.740385 99.2391201,202.851996 L100.644003,203.520461 L102.023472,204.186673 L103.377526,204.85086 L104.706162,205.51325 C104.925483,205.623511 105.143744,205.733706 105.360947,205.843841 L106.651451,206.503959 L107.91653,207.162846 L109.156182,207.82073 L110.370405,208.477837 L111.559197,209.134394 C112.539259,209.68136 113.492826,210.227989 114.419893,210.774873 L115.519653,211.431295 C115.700826,211.540732 115.880939,211.650188 116.059992,211.759669 L117.121586,212.416883 C125.687367,217.787143 131.707399,223.238675 135.175554,229.327845 L135.384702,229.701453 L135.587472,230.076682 L135.790239,230.46699 C139.179217,237.141555 138.790724,244.258218 136.188473,251.851263 C134.418296,257.01642 131.489717,262.640921 127.472853,268.918412 C125.284117,272.338935 122.756895,275.973665 119.909098,279.813059 L118.669039,281.471017 C117.619387,282.863044 116.529172,284.281002 115.399209,285.724457 L114.444,286.938 L114.870649,286.761443 C121.423409,284.063335 127.669794,281.812278 133.566228,280.052476 L134.667698,279.728281 L135.553313,279.474315 L136.303122,279.263996 L137.791506,278.859439 C153.834589,274.593577 167.244474,274.140111 178.177301,278.973067 C191.449516,284.83659 201.605303,295.483576 209.33202,309.606704 L209.698125,310.281856 L209.86,310.585 L209.93418,310.388844 C212.295045,304.148089 214.819908,298.463965 217.537211,293.404687 L218.018738,292.518374 L218.455558,291.731852 C224.501118,280.960342 231.43854,273.170459 240.239111,269.077085 C246.09559,266.355126 253.539444,265.394722 262.803839,265.870737 L263.971387,265.937697 C264.167564,265.950096 264.364536,265.963112 264.562304,265.976743 L265.758488,266.065883 C265.95945,266.081961 266.161214,266.098647 266.36378,266.11594 L267.588827,266.226941 C267.794613,266.246645 268.001206,266.266949 268.208608,266.287849 L269.462746,266.420395 C269.673393,266.443672 269.884853,266.46754 270.097129,266.491996 L271.380586,266.645769 C271.596132,266.672566 271.812498,266.699945 272.029686,266.727904 L273.342689,266.902586 L274.675517,267.091031 C274.899313,267.123577 275.123939,267.156692 275.349397,267.19037 L276.712151,267.399196 C276.940947,267.435121 277.170579,267.471606 277.40105,267.508646 L278.793958,267.737534 C279.027792,267.776785 279.262469,267.816587 279.497991,267.856936 L280.92128,268.105569 C281.16019,268.148094 281.39995,268.19116 281.640561,268.234764 L283.094459,268.502825 L284.56889,268.783661 C284.816345,268.831523 285.06466,268.879912 285.313836,268.928825 L286.819255,269.228559 L288.395,269.55 L288.056863,269.155794 C285.367564,266.000341 282.8829,262.873275 280.620562,259.778588 L279.874708,258.74823 L279.265848,257.891455 C269.618,244.198302 264.480624,231.399108 265.535682,218.925119 C266.26903,210.137456 270.585634,201.20285 278.084412,191.579793 L278.871482,190.581826 C280.468261,188.580893 282.200664,186.54969 284.065139,184.483422 L285.008366,183.447343 L285.973507,182.405287 C286.136185,182.231106 286.299771,182.05667 286.464264,181.881976 L287.46209,180.830705 C287.630203,180.654971 287.799218,180.478974 287.969134,180.302711 L288.999423,179.241924 L290.051231,178.174626 L291.124459,177.100685 L292.219008,176.019967 L293.33478,174.93234 L294.471676,173.837669 L295.629598,172.735822 L296.808446,171.626665 L297.725,170.773 L297.183336,170.888886 C288.058067,172.813714 279.678118,174.107118 272.118107,174.690456 L271.177381,174.75967 L270.344692,174.815189 C269.869152,174.845323 269.396707,174.872672 268.927359,174.897183 L267.528604,174.962148 C252.476102,175.572542 240.696186,173.129269 232.255952,165.81992 C221.139478,156.197158 214.338904,143.669485 211.240702,129.284475 L211.088875,128.563682 L211.005,128.151 L210.780114,128.342181 C208.359013,130.366984 205.883544,132.229732 203.350456,133.916517 L202.397841,134.540786 L201.614384,135.039167 C190.69848,141.889029 179.099428,145.214927 167.120366,143.938478 C160.490172,143.241015 153.880002,139.98348 146.228614,134.384356 L145.178689,133.606346 C143.593823,132.417621 141.963374,131.131342 140.278262,129.749379 C139.263413,128.917099 138.22892,128.047903 137.175113,127.142503 L136.38114,126.456677 Z" id="Path"></path>
        </g>
    </g>
</svg>
